<?xml version="1.0" encoding="utf-8"?>
<!-- Generator: Adobe Illustrator 18.0.0, SVG Export Plug-In . SVG Version: 6.00 Build 0)  -->
<!DOCTYPE svg PUBLIC "-//W3C//DTD SVG 1.1//EN" "http://www.w3.org/Graphics/SVG/1.1/DTD/svg11.dtd">
<svg version="1.1" id="Layer_1" xmlns="http://www.w3.org/2000/svg" xmlns:xlink="http://www.w3.org/1999/xlink" x="0px" y="0px"
	 viewBox="0 0 130 130" enable-background="new 0 0 130 130" xml:space="preserve">
<g>
	<path fill="#467CBF" d="M109.6,91.8c-1.9-1.3-3.8-0.8-4.6,0.4c-0.9,1.3-0.7,2.7,0.9,3.8c1.9,1.3,3.8,0.8,4.6-0.4
		C111.3,94.4,111.2,92.9,109.6,91.8"/>
	<path fill="#467CBF" d="M1.3,65.1C1.3,30,29.9,1.4,65,1.4c35.1,0,63.7,28.6,63.7,63.7c0,35.1-28.6,63.7-63.7,63.7
		C29.9,128.8,1.3,100.2,1.3,65.1 M0.6,65.1c0,35.5,28.9,64.4,64.4,64.4c35.5,0,64.4-28.9,64.4-64.4S100.5,0.6,65,0.6
		C29.5,0.6,0.6,29.6,0.6,65.1"/>
	<path fill="#467CBF" d="M26.5,65.1c0-21.2,17.3-38.5,38.5-38.5s38.5,17.3,38.5,38.5c0,21.2-17.3,38.5-38.5,38.5
		S26.5,86.3,26.5,65.1 M25.7,65.1c0,21.6,17.6,39.3,39.3,39.3s39.3-17.6,39.3-39.3S86.6,25.8,65,25.8S25.7,43.4,25.7,65.1"/>
	<path fill="#467CBF" d="M56.1,41.4c-0.4,0-1,0-1.3,0c-0.1,0,0-0.2,0-0.2c0.6-0.1,0.8-0.1,0.8-0.8v-2.3c0-0.8-0.2-0.8-0.8-0.9
		c0,0-0.1-0.2,0-0.2c0.3,0,0.9,0,1.3,0c0.3,0,0.9,0,1.1,0c0.1,0,0,0.2,0,0.2c-0.6,0.1-0.8,0.1-0.8,0.9v2.3c0,0.7,0.2,0.8,0.8,0.8
		c0,0,0,0.2,0,0.2C57,41.4,56.4,41.4,56.1,41.4"/>
	<path fill="#467CBF" d="M59.8,36.5c0,0.7,0.6,1,1.2,1.4c0.5-0.3,0.8-0.7,0.8-1.3c0-0.7-0.4-1.1-1-1.1C60.2,35.6,59.8,36,59.8,36.5
		 M59.6,40.1c0,0.8,0.6,1.2,1.2,1.2c0.8,0,1.2-0.5,1.2-1.1c0-0.8-0.7-1.2-1.4-1.6C59.9,38.9,59.6,39.3,59.6,40.1 M58.9,40.1
		c0-0.7,0.5-1.3,1.4-1.6c-0.6-0.4-1.1-0.8-1.1-1.5c0-1,0.8-1.6,1.8-1.6c0.8,0,1.5,0.6,1.5,1.3c0,0.6-0.4,1.1-1.1,1.5
		c0.6,0.4,1.3,0.9,1.3,1.7c0,1-0.8,1.8-1.9,1.8C59.7,41.6,58.9,40.9,58.9,40.1"/>
	<path fill="#467CBF" d="M65.5,36.5c0,0.7,0.6,1,1.2,1.4c0.5-0.3,0.8-0.7,0.8-1.3c0-0.7-0.4-1.1-1-1.1C65.8,35.6,65.5,36,65.5,36.5
		 M65.2,40.1c0,0.8,0.6,1.2,1.2,1.2c0.8,0,1.2-0.5,1.2-1.1c0-0.8-0.7-1.2-1.4-1.6C65.5,38.9,65.2,39.3,65.2,40.1 M64.5,40.1
		c0-0.7,0.5-1.3,1.4-1.6c-0.6-0.4-1.1-0.8-1.1-1.5c0-1,0.8-1.6,1.8-1.6c0.8,0,1.5,0.6,1.5,1.3c0,0.6-0.4,1.1-1.1,1.5
		c0.7,0.4,1.3,0.9,1.3,1.7c0,1-0.8,1.8-1.9,1.8C65.3,41.6,64.5,40.9,64.5,40.1"/>
	<path fill="#467CBF" d="M71.1,36.5c0,0.7,0.6,1,1.2,1.4c0.5-0.3,0.8-0.7,0.8-1.3c0-0.7-0.4-1.1-1-1.1C71.5,35.6,71.1,36,71.1,36.5
		 M70.8,40.1c0,0.8,0.6,1.2,1.2,1.2c0.8,0,1.2-0.5,1.2-1.1c0-0.8-0.7-1.2-1.4-1.6C71.2,38.9,70.8,39.3,70.8,40.1 M70.1,40.1
		c0-0.7,0.5-1.3,1.4-1.6c-0.6-0.4-1.1-0.8-1.1-1.5c0-1,0.8-1.6,1.8-1.6c0.8,0,1.5,0.6,1.5,1.3c0,0.6-0.4,1.1-1.1,1.5
		c0.7,0.4,1.3,0.9,1.3,1.7c0,1-0.8,1.8-1.9,1.8C70.9,41.6,70.1,40.9,70.1,40.1"/>
	<path fill="#467CBF" d="M17.5,73.7c-0.2-1.2-0.8-1.6-1.7-1.4c-1,0.2-1.7,1.1-1.3,2.5c0,0-0.3,0.1-0.3,0.1c-0.2-1.3-0.7-1.5-1.5-1.4
		c-1,0.2-1.3,0.8-1.1,1.7c0,0.1,0.1,0.2,0.1,0.3c0.3,0,0.7,0,1.4-0.2l3.2-0.6C17.4,74.5,17.6,74.5,17.5,73.7"/>
	<path fill="#467CBF" d="M12,67.6l1.7-0.1c0-0.1,0-0.2,0-0.4c0-1.4-0.6-2-1.6-1.9c-1.2,0-1.6,0.7-1.6,2c0,0.2,0,0.2,0,0.4
		C10.8,67.6,11.2,67.6,12,67.6"/>
	<polygon fill="#467CBF" points="21,34.9 22.3,37.2 23.5,35.5 	"/>
	<path fill="#467CBF" d="M49,19.6c1.4-0.5,2.2-1.8,1.5-3.6c-0.8-2.2-2.6-2.9-4-2.4c-1.4,0.5-2.2,1.8-1.5,3.6
		C45.9,19.4,47.7,20.1,49,19.6"/>
	<path fill="#467CBF" d="M116.3,46.6c-0.2,0-0.6,0.1-1.3,0.4l-1.6,0.6c0,0.1,0.1,0.2,0.1,0.4c0.5,1.3,1.1,1.7,2.1,1.4
		c1.1-0.4,1.3-1.2,0.9-2.3C116.4,46.8,116.4,46.8,116.3,46.6"/>
	<path fill="#467CBF" d="M23.4,90c-0.2,0.1-0.6,0.3-1.2,0.7l-1.5,0.9c0.1,0.1,0.1,0.2,0.2,0.3c0.7,1.2,1.5,1.4,2.3,0.9
		c1-0.6,1-1.4,0.4-2.5C23.6,90.1,23.5,90.1,23.4,90"/>
	<path fill="#467CBF" d="M40.3,106.8c-0.1-0.1-0.2-0.1-0.3-0.1c-0.2,0.2-0.4,0.5-0.8,1.2l-1.7,2.8c-0.6,1-0.7,1.2,0,1.6
		c1,0.6,1.7,0.5,2.2-0.4c0.5-0.9,0.3-2-1.1-2.6c0,0,0.1-0.3,0.2-0.3c1.1,0.7,1.6,0.4,2-0.2C41.4,107.9,41.1,107.2,40.3,106.8"/>
	<path fill="#467CBF" d="M57.9,114.6c0.2-1.2-0.4-1.7-1.6-1.9c-0.2,0-0.2,0-0.4,0c-0.1,0.2-0.2,0.6-0.3,1.3l-0.3,1.7
		c0.1,0,0.2,0,0.4,0.1C57.1,116,57.7,115.6,57.9,114.6"/>
	<path fill="#467CBF" d="M84.8,109.4c-0.6,0.3-0.8,0.4-0.9,0.5c0.1,0.3,0.2,0.6,0.5,1.3l1.5,3.3c0.3,0.7,0.5,0.9,1.9,0.3
		c1.2-0.5,2-1.9,1.3-3.6C88.1,109.1,86.6,108.6,84.8,109.4"/>
	<polygon fill="#467CBF" points="93,109 94.6,107.9 92.5,106.4 	"/>
	<path fill="#467CBF" d="M120.2,65.6c-0.3,0.1-0.4,0.1-0.5,1.6l-0.2,3.1c-0.1,1.5-0.1,1.6,0.2,1.7c0,0,0,0.3,0,0.3
		c-0.2-0.1-0.6-0.1-0.9-0.1c-0.2,0-0.5,0-0.7,0c0,0,0-0.3,0-0.3c0.5-0.1,0.8-0.4,0.9-1.6l0.1-0.9l-4.5-0.3c-1.3-0.1-1.5,0-1.7,1
		c0,0-0.3,0.1-0.3-0.1c0.1-0.3,0.1-1,0.2-1.5c0-0.6,0.1-1.3,0.1-1.8c0-0.1,0.3,0,0.3,0c0,1,0.2,1.1,1.6,1.2l4.5,0.3l0.1-1
		c0.1-1.1-0.2-1.5-0.7-1.7c0-0.1,0-0.3,0-0.3c0.2,0.1,0.8,0.1,1.1,0.1c0.1,0,0.3,0,0.6,0C120.3,65.3,120.3,65.6,120.2,65.6
		 M119,74.9c-0.1,0.4-0.2,1.1-0.3,1.5c0,0.1-0.3,0-0.3,0c0.1-0.9-0.2-0.8-1.9-0.1l-1.1,0.4l1,1.1c1.2,1.3,1.3,1.3,1.5,0.4
		c0,0,0.3,0,0.3,0.1c-0.2,0.4-0.2,0.9-0.4,1.5c-0.1,0.4-0.1,0.7-0.2,1.1c0,0.1-0.3,0-0.3,0c0.1-0.9,0-1.2-1.1-2.5l-1.3-1.4l-1.6-0.4
		c-1.5-0.3-1.5-0.2-1.8,0.7c0,0-0.3,0-0.3-0.1c0.1-0.3,0.3-1,0.4-1.5c0.1-0.6,0.3-1.3,0.3-1.8c0-0.1,0.3,0,0.3,0.1
		c-0.1,0.9-0.2,1.1,1.4,1.4l1.4,0.3l1.7-0.6c1.8-0.6,2-0.8,2.3-1.7c0,0,0.3,0,0.3,0.1C119.2,73.8,119.1,74.3,119,74.9 M112,86.2
		l-1-2.3l2.3-1l1,2.3L112,86.2z M110.7,96.1c-1.2,1.8-3.6,2.3-5.1,1.2c-1.6-1.1-2.2-3.6-0.8-5.5c1.2-1.8,3.6-2.3,5.1-1.2
		C111.5,91.7,112,94.1,110.7,96.1 M106.6,101.4c-0.3,0.2-0.9,0.8-1.2,1.1c-0.4,0.4-0.9,0.9-1.1,1.2c0,0.1-0.2-0.2-0.2-0.2
		c0.5-0.7,0.5-0.9-0.4-1.9l-1-1l-2.7,2.7l1,1c0.9,0.9,1.2,1,1.8,0.5c0,0,0.3,0.2,0.2,0.2c-0.3,0.2-0.7,0.6-1.1,1
		c-0.4,0.4-1,1-1.3,1.3c0,0.1-0.2-0.2-0.2-0.2c0.7-0.8,0.7-1-0.3-2l-2.3-2.3c-1-1-1.1-1-2-0.3c0,0-0.3-0.2-0.2-0.2
		c0.4-0.3,0.9-0.8,1.4-1.2c0.3-0.3,0.8-0.8,1-1.1c0-0.1,0.2,0.2,0.2,0.2c-0.6,0.7-0.4,0.9,0.5,1.9l0.9,1l2.7-2.7l-0.9-1
		c-0.9-1-1.2-1-1.9-0.5c0,0-0.3-0.2-0.2-0.2c0.4-0.3,0.8-0.7,1.3-1.1c0.3-0.3,0.9-0.9,1.1-1.2c0-0.1,0.2,0.1,0.2,0.2
		c-0.7,0.8-0.6,1.1,0.3,2l2.3,2.3c0.9,0.9,1.1,1,2,0.3C106.5,101.1,106.7,101.4,106.6,101.4 M99,108.6c-0.3,0.2-0.8,0.5-1.2,0.8
		c-0.5,0.3-1.1,0.8-1.5,1.1c-0.1,0.1-0.2-0.2-0.1-0.2c0.4-0.3,0.7-0.4,0.5-0.7c-0.2-0.3-0.6-0.6-1.1-0.9l-0.6-0.5l-1.9,1.3l0.2,0.8
		c0.1,0.7,0.2,1.1,0.4,1.3c0.1,0.2,0.4,0,0.8-0.2c0.1,0,0.2,0.2,0.1,0.2c-0.3,0.1-0.7,0.4-1,0.6c-0.5,0.3-0.6,0.4-1,0.7
		c-0.1,0.1-0.2-0.2-0.1-0.2c0.6-0.4,0.6-1,0.4-2.3l-0.9-5.6c0-0.1,0.1-0.2,0.2-0.1l4.6,3.1c0.9,0.6,1.4,0.9,2.3,0.4
		C98.9,108.3,99.1,108.6,99,108.6 M87.6,115.3c-0.3,0.2-1.2,0.5-1.5,0.6c-0.6,0.3-1.3,0.6-1.7,0.8c-0.1,0.1-0.2-0.2-0.1-0.2
		c0.8-0.5,0.9-0.7,0.3-1.9l-1.3-2.9c-0.6-1.2-0.8-1.3-1.7-1c0,0-0.2-0.2-0.1-0.3c0.4-0.1,1.3-0.5,1.9-0.8c0.2-0.1,1.1-0.6,1.5-0.7
		c2.3-1.1,4.2-0.3,5,1.5C90.7,112.1,89.8,114.3,87.6,115.3 M81.4,117.7c-0.3,0-1,0.2-1.5,0.3c-0.6,0.2-1.3,0.4-1.7,0.5
		c-0.1,0.1-0.1-0.2-0.1-0.3c0.9-0.4,1-0.6,0.6-1.9l-0.9-3.1c-0.4-1.3-0.6-1.4-1.5-1.3c0,0-0.2-0.3,0-0.3c0.4-0.1,1.1-0.2,1.7-0.4
		c0.4-0.1,1.1-0.3,1.4-0.5c0.1,0,0.1,0.2,0.1,0.3c-0.9,0.3-0.9,0.6-0.6,1.9l0.9,3.1c0.3,1.2,0.5,1.5,1.5,1.3
		C81.4,117.4,81.5,117.7,81.4,117.7 M70.6,121.4c-0.1,0-0.1-0.3,0-0.3c0.9-0.1,1.1-0.5,1-0.9c0-0.2-0.2-0.4-0.6-0.5
		c-0.3-0.1-0.4-0.2-0.5-0.4c0-0.3,0.2-0.5,0.5-0.5c0.5-0.1,1,0.3,1.1,1C72.2,120.6,71.6,121.3,70.6,121.4 M69.2,117.2
		c-1,0.1-1,0.2-1,1.6c0,0.3,0,0.6,0.2,0.7c-0.9,0.5-1.8,0.8-2.9,0.8c-2.5,0-4-1.6-4-3.5c0-2,1.7-3.8,4.1-3.8c1,0,2.1,0.5,2.3,0.6
		c0.1,0.1,0.2,1,0.1,1.7c0,0.1-0.3,0-0.3,0c-0.1-0.8-1-1.9-2.4-1.9c-1.6,0-2.7,1.1-2.7,3c0,2.3,1.4,3.4,2.9,3.4
		c1.1,0,1.3-0.3,1.3-0.4c0-0.1,0.1-0.4,0.1-0.7c0-1.4,0-1.4-1.2-1.5c0,0-0.1-0.3,0-0.3c0.5,0,1.3,0.1,1.9,0.1c0.4,0,1.1,0,1.4-0.1
		C69.3,116.9,69.3,117.2,69.2,117.2 M59.9,120.2c-2.3-0.4-3.3-2.3-3.5-4c-0.3,0-0.6,0-0.8,0c-0.2,0-0.3-0.1-0.4-0.1l-0.2,1.2
		c-0.2,1.3-0.2,1.5,0.8,1.8c0,0,0,0.3-0.1,0.3c-0.3-0.1-1-0.2-1.5-0.3c-0.6-0.1-1.3-0.2-1.8-0.2c-0.1,0,0-0.3,0-0.3
		c0.9,0.1,1.1-0.1,1.4-1.4l0.5-3.2c0.2-1.2,0-1.5-0.5-1.6c-0.1,0-0.2,0-0.4,0c-0.1,0-0.1-0.3,0-0.3c0.5-0.1,1.7,0.1,2.9,0.3
		c1.9,0.3,2.8,1.1,2.6,2.2c-0.1,0.7-0.7,1.3-1.6,1.5c0.3,1.5,1.3,3.7,2.5,3.9C60,120,60,120.3,59.9,120.2 M52.2,111.8
		c-1-0.3-1.1,0-1.5,1.1l-0.9,2.5c-0.5,1.4-2,2.1-3.8,1.5c-1.6-0.6-2.5-2-1.9-3.6l0.9-2.4c0.5-1.3,0.4-1.5-0.4-1.9c0,0,0-0.3,0.1-0.2
		c0.4,0.2,1,0.4,1.6,0.7c0.4,0.2,1.1,0.4,1.4,0.5c0.1,0,0,0.3-0.1,0.2c-0.9-0.3-1.1,0-1.6,1.2l-0.8,2.1c-0.6,1.6,0.2,2.6,1.2,3
		c1.4,0.5,2.3,0,2.8-1.3l0.9-2.4c0.4-1.1,0.4-1.4-0.5-1.8c-0.1,0,0-0.3,0.1-0.2c0.4,0.2,0.7,0.3,1.3,0.5c0.4,0.1,0.9,0.3,1.2,0.4
		C52.3,111.6,52.2,111.8,52.2,111.8 M41.9,109.2c-0.3,0.5-1.1,0.8-2,0.6c1,0.7,1.4,1.7,0.9,2.5c-0.6,1-2.1,1.3-3.5,0.5
		c-0.3-0.2-0.9-0.6-1.1-0.7c-0.5-0.3-1.1-0.7-1.5-0.8c-0.1-0.1,0.1-0.3,0.1-0.2c0.9,0.4,1.1,0.3,1.8-0.9l1.6-2.8
		c0.7-1.2,0.7-1.4-0.1-2c0,0,0.1-0.3,0.2-0.2c0.3,0.3,0.8,0.5,1.3,0.9c0.2,0.1,0.8,0.5,1.2,0.6C41.8,107.2,42.4,108.2,41.9,109.2
		 M32.9,109.7c0,0-0.1,0.3-0.2,0.2c-0.2-0.2-0.7-0.6-1-0.9c-0.5-0.4-1.1-0.9-1.5-1.2c-0.1-0.1,0.1-0.2,0.2-0.2
		c0.6,0.4,0.8,0.3,1-1.6l0.1-1l-1.3,0.4c-1.6,0.4-1.7,0.6-1.2,1.1c0.1,0-0.1,0.3-0.2,0.2c-0.2-0.2-0.6-0.6-0.9-0.9
		c-0.5-0.4-0.6-0.5-1-0.8c-0.1,0,0.1-0.2,0.2-0.2c0.8,0.6,1.1,0.6,2.7,0.1l1.7-0.5l0.2-1.7c0.2-1.7,0.2-2.2-0.4-2.8
		c0,0,0.1-0.3,0.2-0.2c0.3,0.3,0.7,0.7,1.2,1.1c0.4,0.3,0.9,0.7,1.2,0.9c0.1,0.1-0.1,0.2-0.2,0.2c-0.6-0.4-0.8-0.2-1,1.6l-0.1,0.8
		l1.1-0.3c1.7-0.5,1.7-0.6,1.2-1.1c0,0,0.1-0.3,0.2-0.2c0.3,0.3,0.6,0.6,1.1,1c0.4,0.3,0.6,0.4,0.9,0.6c0.1,0-0.1,0.3-0.2,0.2
		c-0.7-0.5-1.2-0.5-2.8-0.1l-1.5,0.4l-0.2,2C32.3,108.4,32.2,109,32.9,109.7 M26.7,100.6c0.4-0.4,0.3-0.5-0.4-1.4l-0.5-0.5l-1.1,0.9
		c-1,0.9-1.1,1-0.8,1.4l0.4,0.4c1.1,1.2,1.3,1.1,1.9,0.8c0,0,0.2,0.2,0.2,0.2c-0.2,0.1-0.8,0.5-1,0.6c-0.2,0.1-0.3,0.1-0.4-0.1
		c-0.3-0.3-0.7-0.8-1.2-1.4c-0.7-0.8-1.6-1.8-2.1-2.4c-0.1-0.1,0.2-0.2,0.2-0.2c0.8,0.7,1,0.7,2-0.2l2.4-2.1c1-0.9,1.1-1.1,0.5-2
		c0,0,0.2-0.3,0.2-0.2c0.5,0.7,1.3,1.6,2,2.4c0.5,0.6,1,1.1,1.5,1.6c-0.2,0.1-0.4,0.3-0.6,0.4c-0.1,0.1-0.3,0.3-0.4,0.3
		c0,0-0.2-0.2-0.2-0.2c0.3-0.4,0.4-0.7-0.6-1.7l-0.6-0.7c-0.2,0.1-0.5,0.4-1,0.8l-1,0.9l0.5,0.5c0.8,0.9,0.9,1,1.3,0.7
		c0,0,0.2,0.2,0.1,0.2c-0.1,0.1-0.5,0.4-0.7,0.5c-0.1,0.1-0.4,0.3-0.5,0.4C26.9,100.8,26.7,100.6,26.7,100.6 M20.5,98
		c-1.2-2-0.5-4,0.6-5.3c-0.2-0.2-0.4-0.4-0.5-0.6c-0.1-0.2-0.1-0.2-0.2-0.4l-1,0.6c-1.1,0.7-1.3,0.9-0.8,1.8c0,0-0.2,0.2-0.2,0.1
		c-0.1-0.3-0.5-0.9-0.8-1.3c-0.3-0.5-0.7-1.1-1-1.5c-0.1-0.1,0.2-0.2,0.2-0.1c0.6,0.7,0.8,0.8,2,0.1l2.7-1.7c1.1-0.7,1.2-1,0.9-1.4
		c-0.1-0.1-0.1-0.2-0.2-0.3c-0.1,0,0.1-0.2,0.2-0.2c0.4,0.3,1.1,1.4,1.7,2.4c1,1.6,1,2.8,0.1,3.4c-0.6,0.4-1.5,0.3-2.2-0.2
		c-0.9,1.3-1.9,3.4-1.2,4.5C20.7,97.9,20.5,98.1,20.5,98 M16.4,82.1l2.3,1l-1,2.3l-2.3-1L16.4,82.1z M11.8,77.9c0,0-0.3,0.2-0.3,0
		c0-0.4-0.1-0.9-0.2-1.6c0-0.3-0.2-0.9-0.3-1.3c-0.2-1.2,0.1-2.4,1.2-2.6c0.6-0.1,1.3,0.3,1.7,1.1c-0.2-1.2,0.4-2.1,1.3-2.3
		c1.2-0.2,2.3,0.7,2.6,2.3c0.1,0.4,0.2,1.1,0.2,1.3c0.1,0.6,0.2,1.3,0.4,1.7c0,0.1-0.3,0.1-0.3,0.1c-0.3-0.9-0.5-1-1.8-0.8l-3.2,0.6
		C11.9,76.7,11.8,76.9,11.8,77.9 M10.7,69.9c0,0.1-0.2,0.1-0.3,0.1c-0.2-0.5-0.3-1.7-0.3-2.9c-0.1-1.9,0.5-3,1.7-3
		c0.7,0,1.4,0.5,1.8,1.3c1.4-0.6,3.3-2,3.3-3.2c0-0.9-0.2-1.1-1.5-1.2l-3.2-0.3c-1.3-0.1-1.5,0-1.7,0.9c0,0-0.3,0.1-0.3-0.1
		c0.1-0.4,0.2-1.1,0.2-1.8c0-0.4,0.1-1.2,0.1-1.5c0-0.1,0.3,0,0.3,0c0,1,0.3,1.1,1.5,1.2l3.2,0.3c1.3,0.1,1.5,0,1.7-0.9
		c0,0,0.3-0.1,0.3,0.1c-0.1,0.3-0.2,1.1-0.2,1.5c-0.1,0.6-0.1,1.2-0.1,1.6c0,0,0,0,0,0c0,0,0,0.1,0,0.1c0,0,0,0,0,0.1c0,0,0,0,0,0
		c0,2.2-1.6,3.6-3.2,4.1c0,0.3,0.1,0.6,0.1,0.8c0,0.2,0,0.3,0,0.4l1.2,0c1.3,0,1.5-0.1,1.6-1.1c0,0,0.3-0.1,0.3,0c0,0.3,0,1.1,0,1.5
		c0,0.6,0,1.3,0.1,1.8c0,0.1-0.3,0-0.3,0c-0.1-0.9-0.3-1.1-1.7-1l-3.2,0.1c-1.2,0-1.5,0.3-1.5,0.8C10.6,69.6,10.6,69.7,10.7,69.9
		 M11.5,51.8c0.2-1,1-2,1.2-2.1c0.1-0.1,1,0,1.6,0.3c0.1,0,0,0.3,0,0.3c-0.8-0.1-2.1,0.5-2.4,1.9c-0.4,1.6,0.4,2.9,2.3,3.3
		c2.3,0.5,3.7-0.5,4-2c0.3-1.1,0-1.3-0.1-1.4c-0.1-0.1-0.4-0.2-0.6-0.2c-1.3-0.3-1.4-0.3-1.7,0.8c0,0-0.3,0-0.3-0.1
		c0.1-0.4,0.4-1.2,0.5-1.8c0.1-0.4,0.2-1.1,0.3-1.4c0-0.1,0.3,0,0.3,0c-0.1,1,0,1,1.3,1.3c0.3,0.1,0.5,0.1,0.7,0
		c0.3,1,0.4,1.9,0.1,3c-0.6,2.4-2.5,3.5-4.3,3.1C12.4,56.3,11,54.2,11.5,51.8 M13.9,44.9c0.2-0.4,0.4-1,0.5-1.3
		c0-0.1,0.3,0.1,0.3,0.1c-0.3,0.8-0.1,1,1.1,1.6l1.2,0.6l1.6-3.5l-1.2-0.6c-1.2-0.5-1.5-0.5-1.9,0.2c0,0-0.3-0.1-0.3-0.1
		c0.2-0.4,0.5-0.9,0.8-1.5c0.2-0.4,0.5-1.2,0.6-1.5c0-0.1,0.3,0,0.3,0.1c-0.4,1-0.1,1.2,1,1.7l2.9,1.3c1.2,0.5,1.4,0.6,2-0.4
		c0-0.1,0.3,0.1,0.2,0.1c-0.2,0.3-0.5,1-0.7,1.5c-0.3,0.6-0.5,1.1-0.6,1.5c0,0.1-0.3-0.1-0.2-0.1c0.2-0.8,0.1-1-1.1-1.6L19,42.5
		L17.4,46l1.3,0.6c1.1,0.5,1.5,0.5,1.9-0.2c0,0,0.3,0.1,0.2,0.1c-0.2,0.3-0.4,0.9-0.6,1.3c-0.2,0.6-0.6,1.3-0.7,1.7
		c0,0.1-0.3-0.1-0.2-0.1c0.3-1,0.2-1.2-1-1.7l-2.9-1.3c-1.2-0.6-1.4-0.5-2,0.4c0,0-0.3-0.1-0.2-0.1C13.3,46.2,13.7,45.5,13.9,44.9
		 M19.9,33.6l5.4,1.3c1.1,0.2,1.6,0.4,2.3-0.4c0,0,0.3,0.1,0.2,0.2c-0.2,0.3-0.6,0.8-0.9,1.1c-0.3,0.5-0.8,1.1-1,1.5
		c0,0.1-0.2-0.1-0.2-0.2c0.2-0.4,0.5-0.6,0.2-0.8c-0.3-0.2-0.8-0.3-1.3-0.5l-0.8-0.2l-1.3,1.9l0.4,0.7c0.4,0.6,0.6,0.9,0.8,1.1
		c0.2,0.1,0.4-0.1,0.6-0.4c0-0.1,0.3,0.1,0.2,0.2c-0.2,0.2-0.5,0.6-0.7,1c-0.3,0.5-0.4,0.6-0.6,1c0,0.1-0.2-0.1-0.2-0.2
		c0.4-0.6,0.3-1.1-0.4-2.3l-2.9-4.9C19.8,33.7,19.8,33.6,19.9,33.6 M23.4,28.9c0.4-0.3,1-0.9,1.7-1.6l5.6,2l-1.3-3.4
		c-0.3-0.7-0.5-1.4-0.8-1.9c0.5-0.5,1.3-1.3,1.6-1.7c0-0.1,0.2,0.1,0.2,0.2c-0.7,0.9-0.6,1.1,0.3,2l2.3,2.3c0.9,0.9,1.2,1,2,0.3
		c0,0,0.3,0.2,0.2,0.2c-0.3,0.2-0.9,0.8-1.2,1.1c-0.5,0.4-0.9,0.9-1.2,1.2c0,0.1-0.2-0.2-0.2-0.2c0.5-0.6,0.5-0.9-0.4-1.8l-2.7-2.7
		l2.2,5.7c0,0.1-0.1,0.2-0.2,0.1l-5.7-2.1l2.5,2.7c0.8,0.8,1.1,1.1,1.9,0.4c0,0,0.3,0.2,0.2,0.2c-0.3,0.2-0.6,0.5-0.9,0.8
		c-0.4,0.4-0.8,0.7-1.1,1.1c0,0.1-0.2-0.2-0.2-0.2c0.6-0.7,0.5-1-0.3-1.9L25.3,29c-0.3-0.4-1.1-0.4-1.7,0.1
		C23.6,29.1,23.3,28.9,23.4,28.9 M35,18.9c0.4-0.2,0.9-0.4,1.5-0.8c0.4-0.2,1-0.6,1.3-0.8c0.1-0.1,0.2,0.2,0.1,0.2
		c-0.8,0.5-0.5,0.6,1.1,1.5l1,0.5l0.2-1.5c0.2-1.8,0.1-1.8-0.7-1.4c0,0-0.2-0.2-0.1-0.2c0.4-0.2,0.8-0.4,1.4-0.7
		c0.4-0.2,0.6-0.4,0.9-0.6c0.1-0.1,0.2,0.2,0.1,0.2c-0.8,0.5-0.9,0.8-1.1,2.5l-0.2,1.9l0.8,1.4c0.7,1.3,0.8,1.3,1.7,0.9
		c0,0,0.2,0.2,0.1,0.2c-0.3,0.1-0.9,0.5-1.3,0.7c-0.6,0.3-1.2,0.6-1.5,0.9c-0.1,0.1-0.2-0.2-0.1-0.2c0.8-0.6,0.9-0.6,0.1-1.9
		l-0.7-1.3L38,19.7c-1.7-0.9-2-1-2.8-0.6C35.1,19.1,35,18.9,35,18.9 M46.7,13.1c2.1-0.7,4.2,0.3,4.8,2.1c0.6,1.8-0.4,4.1-2.6,4.9
		c-2.1,0.7-4.2-0.3-4.8-2.1C43.5,16.2,44.5,13.9,46.7,13.1 M52.4,11.5c0.4,0,1.1-0.1,1.8-0.2c0.5-0.1,1.2-0.2,1.5-0.3
		c0.1,0,0.1,0.2,0.1,0.3c-0.9,0.2-1,0.5-0.8,1.8l0.4,2.2c0.3,1.7,1.4,2.2,2.5,2c1.4-0.2,2-1.1,1.8-2.6l-0.4-2.5
		c-0.2-1.2-0.4-1.4-1.3-1.4c-0.1,0-0.1-0.3,0-0.3c0.4,0,0.8-0.1,1.4-0.2c0.4-0.1,0.9-0.2,1.2-0.2c0.1,0,0.1,0.2,0.1,0.2
		c-1,0.2-1,0.6-0.8,1.7l0.4,2.6c0.2,1.4-0.7,2.8-2.6,3.1c-1.6,0.3-3.2-0.5-3.5-2.2l-0.4-2.5c-0.2-1.3-0.4-1.5-1.3-1.5
		C52.4,11.7,52.3,11.4,52.4,11.5 M62.6,10c0.4,0.1,1.3,0.1,1.9,0.1l4.8,5.3l0.1-3.3c0-1.2-0.1-1.5-1-1.7c-0.1,0-0.1-0.3,0-0.3
		c0.4,0.1,0.8,0.1,1.4,0.1c0.5,0,0.9,0,1.3,0c0.1,0,0.1,0.3,0,0.3c-1,0-1.1,0.5-1.1,1.6l-0.1,3.2c0,0.5,0,1.5,0,2c0,0-0.2,0.1-0.3,0
		l-5.1-5.6l-0.1,3.4c0,1.1,0,1.5,1,1.7c0,0,0,0.3,0,0.3c-0.3-0.1-0.7-0.1-1.2-0.1c-0.6,0-1.1,0-1.5,0c-0.1,0,0-0.3,0-0.3
		c0.9-0.1,1.1-0.4,1.1-1.6l0.1-3.7c0-0.5-0.9-1.2-1.3-1.2C62.6,10.3,62.5,10,62.6,10 M72.3,14.2c0.4-1.9,2.5-3.4,4.9-2.9
		c1,0.2,2,0.9,2.1,1.1c0.1,0.1,0,1-0.2,1.6c0,0.1-0.3,0-0.3,0c0.1-0.8-0.6-2-2-2.4c-1.6-0.3-2.8,0.5-3.3,2.3c-0.5,2.3,0.6,3.7,2.1,4
		c1.1,0.2,1.3,0,1.4-0.1c0.1-0.1,0.2-0.4,0.2-0.7c0.3-1.3,0.3-1.4-0.8-1.7c0,0,0-0.3,0.1-0.3c0.4,0.1,1.2,0.3,1.8,0.5
		c0.4,0.1,1.1,0.2,1.4,0.2c0.1,0,0,0.3,0,0.3c-1-0.1-1,0-1.3,1.3c-0.1,0.3-0.1,0.5,0,0.7c-1,0.3-1.9,0.4-3,0.2
		C73.1,18,72,16,72.3,14.2 M84.8,18.5l1.1-2.2c0.6-1.2,0.5-1.4-0.2-2c0,0,0.1-0.3,0.1-0.2c0.4,0.3,1,0.6,1.6,0.8
		c0.4,0.2,1.1,0.5,1.4,0.6c0.1,0,0,0.3-0.1,0.2c-0.9-0.4-1.1-0.1-1.7,1l-1,2c-0.7,1.5-0.1,2.6,0.9,3.1c1.3,0.6,2.3,0.3,3-1l1.1-2.3
		c0.5-1.1,0.5-1.4-0.3-1.9c-0.1,0,0.1-0.3,0.1-0.2c0.4,0.3,0.7,0.4,1.2,0.7c0.4,0.2,0.8,0.4,1.1,0.5c0.1,0-0.1,0.3-0.1,0.2
		c-0.9-0.4-1.1-0.1-1.7,0.9l-1.2,2.4c-0.6,1.3-2.2,1.9-3.9,1.1C84.8,21.6,84,20,84.8,18.5 M94.9,18.8c0.3,0.3,1,0.8,1.4,1.2l0.8,7.1
		l2-2.6c0.7-1,0.8-1.3,0.1-2c0-0.1,0.1-0.3,0.2-0.2c0.3,0.3,0.6,0.5,1.1,0.9c0.4,0.3,0.8,0.5,1,0.7c0.1,0.1-0.1,0.3-0.1,0.2
		c-0.8-0.6-1.2-0.3-1.9,0.6l-2,2.6c-0.3,0.4-0.9,1.2-1.1,1.6c0,0-0.2,0-0.2-0.1l-1-7.5l-2.1,2.7c-0.7,0.9-0.9,1.3-0.1,1.9
		c0,0-0.1,0.3-0.2,0.2c-0.2-0.2-0.5-0.5-0.9-0.7c-0.5-0.4-0.9-0.7-1.3-0.9c-0.1,0,0.1-0.2,0.2-0.2c0.8,0.5,1.1,0.3,1.8-0.6l2.2-2.9
		c0.3-0.4,0-1.5-0.4-1.8C94.7,19,94.9,18.8,94.9,18.8 M103.1,25.9c0,0,0.1-0.3,0.2-0.2c0.3,0.4,0.7,0.9,1.2,1.3
		c0.3,0.3,0.8,0.8,1.1,1c0.1,0.1-0.2,0.2-0.2,0.2c-0.7-0.7-1-0.5-1.9,0.4l-2.3,2.2c-0.9,0.9-1,1.1-0.4,1.9c0,0-0.1,0.3-0.2,0.2
		c-0.2-0.3-0.7-0.8-1-1.1c-0.4-0.5-0.9-1-1.3-1.2c-0.1-0.1,0.2-0.2,0.2-0.2c0.7,0.6,1,0.6,1.9-0.4l2.3-2.2
		C103.7,26.9,103.7,26.6,103.1,25.9 M106.8,29.6c0,0,0.2-0.2,0.2-0.2c0.2,0.3,0.5,0.8,0.8,1.2c0.4,0.5,0.8,1.1,1.1,1.4
		c0.1,0.1-0.2,0.2-0.2,0.2c-0.3-0.3-0.5-0.5-0.7-0.4c-0.2,0.1-0.4,0.4-0.8,1l-1.9,3.3l3.8-0.8c0.8-0.2,1-0.3,1.2-0.4
		c0.2-0.1,0.1-0.4-0.1-0.8c0,0,0.2-0.2,0.2-0.2c0.2,0.3,0.4,0.7,0.7,1c0.4,0.5,0.4,0.6,0.8,0.9c0.1,0.1-0.2,0.2-0.2,0.2
		c-0.5-0.5-0.9-0.6-2.3-0.3l-5.5,1.2c0,0-0.2-0.1-0.1-0.2l2.8-4.9C107.1,30.9,107.2,30.4,106.8,29.6 M106.6,65.1
		c0,23-18.6,41.6-41.6,41.6c-23,0-41.6-18.6-41.6-41.6c0-23,18.6-41.6,41.6-41.6C88,23.4,106.6,42.1,106.6,65.1 M112.5,37.3
		c0.3,0.7,0.9,1.9,1.4,2.8c0.4,0.7,0.7,1.3,1.1,1.9c-0.2,0-0.5,0.2-0.7,0.3c-0.1,0.1-0.4,0.2-0.4,0.2c0,0-0.2-0.2-0.1-0.2
		c0.4-0.3,0.5-0.6-0.1-1.8l-0.4-0.8c-0.2,0.1-0.6,0.2-1.2,0.6l-1.2,0.6l0.3,0.6c0.6,1.1,0.6,1.1,1.1,1c0,0,0.2,0.2,0.1,0.2
		c-0.2,0-0.6,0.2-0.8,0.3c-0.1,0.1-0.5,0.2-0.5,0.3c0,0-0.2-0.2-0.1-0.2c0.4-0.3,0.4-0.4-0.1-1.5l-0.3-0.6l-1.3,0.7
		c-1.2,0.6-1.3,0.8-1.1,1.2l0.3,0.5c0.8,1.5,1,1.4,1.7,1.2c0,0,0.1,0.2,0.1,0.3c-0.3,0.1-0.9,0.3-1.2,0.3c-0.2,0.1-0.3,0-0.4-0.1
		c-0.2-0.4-0.4-1-0.8-1.7c-0.5-1-1.1-2.1-1.5-2.8c0-0.1,0.2-0.2,0.2-0.1c0.6,0.9,0.8,0.9,2,0.3l2.9-1.5c1.2-0.6,1.3-0.8,0.9-1.8
		C112.2,37.4,112.5,37.2,112.5,37.3 M115.7,44.3c0.3,0.4,0.7,1.6,1.1,2.7c0.6,1.8,0.4,3-0.7,3.4c-0.7,0.2-1.5,0-2.1-0.7
		c-1.2,1-2.6,2.9-2.2,4.1c0,0-0.2,0.2-0.3,0.1c-0.8-2.2,0.4-4,1.8-5c-0.1-0.2-0.3-0.5-0.3-0.7c-0.1-0.2-0.1-0.3-0.1-0.4l-1.1,0.4
		c-1.2,0.4-1.4,0.6-1.2,1.5c0,0-0.3,0.2-0.3,0.1c-0.1-0.3-0.3-1-0.4-1.5c-0.2-0.6-0.4-1.3-0.6-1.7c-0.1-0.1,0.2-0.1,0.3-0.1
		c0.4,0.8,0.6,1,1.9,0.5l3.1-1c1.2-0.4,1.4-0.7,1.2-1.2c0-0.1-0.1-0.2-0.2-0.4C115.5,44.4,115.7,44.2,115.7,44.3 M119.2,55.4
		c0.1,0.6,0,1-0.1,1.4c0,0.1-0.6,0.3-1.3,0.4c0,0-0.1-0.3-0.1-0.3c0.7-0.3,1.2-0.9,1-1.6c-0.1-0.7-0.5-1.1-1.2-1
		c-1.7,0.3-1.1,3.3-3.1,3.7c-1.2,0.2-2.3-0.5-2.6-1.8c-0.1-0.8,0.1-1.4,0.4-2.1c0-0.1,0.8-0.2,1.6-0.3c0.1,0,0.1,0.2,0.1,0.2
		c-1.1,0.3-1.8,1-1.6,2.1c0.1,0.8,0.7,1.2,1.4,1.1c1.8-0.3,1.2-3.4,3.1-3.8C117.8,53.4,119,54.1,119.2,55.4 M119.7,59.7
		c0,0.4,0,1.1,0,1.8c0,0.4,0.1,1.2,0.2,1.5c0,0.1-0.3,0.1-0.3,0c-0.1-1-0.4-1.1-1.7-1l-3.2,0.2c-1.3,0.1-1.5,0.2-1.5,1.2
		c0,0-0.3,0.1-0.3,0c0-0.3,0-1.1,0-1.5c0-0.6-0.1-1.3-0.2-1.8c0-0.1,0.3-0.1,0.3,0c0.2,0.9,0.4,1.1,1.7,1l3.2-0.2
		c1.4-0.1,1.5-0.2,1.6-1.2C119.4,59.6,119.7,59.6,119.7,59.7 M67.7,4.1C34,2.6,5.5,28.7,4,62.4C2.6,96.1,28.7,124.6,62.3,126
		c33.7,1.5,62.2-24.6,63.6-58.3C127.4,34.1,101.3,5.6,67.7,4.1"/>
	<path fill="#467CBF" d="M40.9,81.5c-0.2,0-0.4,0.2-0.4,0.4c0,0.2,0.2,0.4,0.4,0.4h49c0.2,0,0.4-0.2,0.4-0.4c0-0.2-0.2-0.4-0.4-0.4
		H40.9z"/>
	<path fill="#467CBF" d="M40.9,48.5c-0.2,0-0.4,0.2-0.4,0.4c0,0.2,0.2,0.4,0.4,0.4h49c0.2,0,0.4-0.2,0.4-0.4c0-0.2-0.2-0.4-0.4-0.4
		H40.9z"/>
	<path fill="#467CBF" d="M34.2,57.9l0,15.2c0,0.5,0,0.7-0.3,0.9c-0.3,0.2-0.7,0.2-1.3,0.3c0,0,0,0,0,0c-0.1,0,0,0.2,0,0.2H45
		c5.2,0,7.4-2.1,7.4-5.3c0-2.4-1.1-3.8-3.3-4.4c0,0,0-0.1,0-0.1c1.4-0.4,2.7-1.4,2.7-3.9c0-3.4-2.3-4.5-7.2-4.5H32.6
		c-0.1,0-0.1,0.2,0,0.2c0,0,0,0,0,0c0.6,0.1,0.9,0.1,1.3,0.3C34.2,57.3,34.2,57.4,34.2,57.9 M40,70.7v-3.7c0-0.2,0-0.4,0-0.4
		s0.2,0,0.4,0h2c1.6,0,3.6,0,3.6,2.2c0,1.6-1.4,2.2-3.3,2.2h-2.3c-0.2,0-0.4,0-0.4,0S40,70.9,40,70.7 M40,63.5v-3.2
		c0-0.2,0-0.4,0-0.4s0.2,0,0.4,0h2.4c1.8,0,2.9,0.3,2.9,1.9c0,1.1-0.7,2-2.8,2h-2.5c-0.2,0-0.4,0-0.4,0S40,63.7,40,63.5"/>
	<path fill="#467CBF" d="M96.3,57.9c0-0.5,0-0.7,0.3-0.9c0.3-0.2,0.7-0.2,1.3-0.3c0,0,0,0,0,0c0.1,0,0-0.2,0-0.2l-9.1,0
		c-0.1,0-0.1,0.2,0,0.2c0,0,0,0,0,0c0.6,0.1,0.8,0.1,1.2,0.3c0.3,0.2,0.3,0.4,0.3,0.9v9.2c0,2.1-1.2,3.7-3.6,3.7
		c-2.4,0-3.6-1.6-3.6-3.7v-9.2c0-0.5,0-0.7,0.3-0.9c0.3-0.2,0.6-0.3,1.2-0.3c0,0,0,0,0,0c0.1,0,0-0.2,0-0.2h-8.6
		c-0.1,0-0.1,0.2,0,0.2c0,0,0,0,0,0c0.3,0,0.5,0,0.7,0.2c0.3,0.2,0.3,0.5,0.3,1v9c0,4.3,2.4,8,9.6,8c7.2,0,9.6-3.7,9.6-8V57.9z"/>
	<path fill="#467CBF" d="M68.8,74.6c0.1,0,0.1-0.2,0-0.2c0,0,0,0,0,0c-0.6-0.1-0.9-0.1-1.3-0.3c-0.4-0.2-0.3-0.4-0.3-0.9v-5.8
		l6.3-9.3c0.3-0.5,0.6-0.8,0.8-1c0,0,0.2-0.1,0.2-0.2c0.3-0.1,0.4-0.2,0.7-0.2c0,0,0,0,0,0c0.1,0,0.1-0.2,0-0.2l-8.5,0
		c-0.1,0-0.1,0.2,0,0.2c0,0,0,0,0,0c0.4,0,0.9,0,0.8,0.6c0,0.6-2.5,4.1-3.4,5.4c-0.1,0.2-0.2,0.4-0.3,0.6c0-0.2-0.2-0.5-0.3-0.6
		c-1.2-1.8-3.3-4.7-3.4-5.5c0-0.6,0.4-0.6,0.8-0.6c0,0,0,0,0,0c0.1,0,0.1-0.2,0-0.2l-8.9,0c-0.1,0,0,0.2,0,0.2c0,0,0,0,0,0
		c0.4,0,0.6,0,1,0.2c0.1,0,0.2,0.1,0.2,0.1c0.3,0.2,0.5,0.5,0.8,1l6.3,9.3v5.8c0,0.5,0,0.7-0.3,0.9c-0.3,0.2-0.7,0.2-1.3,0.3
		c0,0,0,0,0,0c-0.1,0,0,0.2,0,0.2H68.8z"/>
	<path fill="#467CBF" d="M50.3,93.9c-0.5,0-1.1,0-1.5,0.1c-0.1,0,0-0.2,0-0.2c0.8-0.1,0.9-0.2,0.9-1.4v-2.7c0-1.1-0.1-1.3-0.9-1.4
		c0,0-0.1-0.2,0-0.2c0.4,0.1,0.9,0.1,1.5,0.1c0.4,0,1,0,1.2-0.1c0.1,0,0,0.2,0,0.2c-0.8,0.1-0.9,0.3-0.9,1.4v2.7
		c0,1.1,0.1,1.3,0.9,1.4c0,0,0.1,0.2,0,0.2C51.3,93.9,50.7,93.9,50.3,93.9"/>
	<path fill="#467CBF" d="M55.2,88.5c-0.1,0.3-0.1,0.5-0.1,1.2v3c0,0.7,0.1,0.9,1.3,0.9c1.1,0,2.2-0.7,2.2-2.3c0-1.9-0.9-2.8-2.6-2.8
		C55.5,88.5,55.3,88.5,55.2,88.5 M54.9,93.9c-0.5,0-1.2,0-1.6,0.1c-0.1,0,0-0.2,0-0.2c0.8-0.1,0.9-0.2,0.9-1.4v-2.7
		c0-1.1-0.1-1.3-0.9-1.4c0,0-0.1-0.2,0-0.2c0.4,0.1,1.1,0.1,1.7,0.1c0.2,0,1,0,1.4,0c2.1,0,3.3,1.2,3.3,2.8c0,1.6-1.4,3-3.4,3
		C55.9,93.9,55.1,93.9,54.9,93.9"/>
	<path fill="#467CBF" d="M62.4,91.4H64l-0.7-2L62.4,91.4z M64,93.9c-0.1,0,0-0.2,0-0.2c0.4,0,0.7,0,0.7-0.2c0-0.3-0.2-0.7-0.3-1.1
		l-0.2-0.6h-1.9L62,92.4c-0.2,0.5-0.4,0.9-0.4,1.1c0,0.2,0.2,0.2,0.6,0.2c0.1,0,0.1,0.2,0,0.2c-0.3,0-0.6-0.1-1-0.1
		c-0.5,0-0.6,0-1,0.1c-0.1,0,0-0.2,0-0.2c0.6,0,0.9-0.4,1.4-1.4l2-4.3c0-0.1,0.1-0.1,0.2,0l1.7,4.3c0.3,0.9,0.5,1.3,1.4,1.4
		c0,0,0.1,0.2,0,0.2c-0.3,0-0.8-0.1-1.2-0.1C65,93.9,64.4,93.9,64,93.9"/>
	<path fill="#467CBF" d="M71.9,93.9c-0.1,0,0-0.2,0-0.2c0.7-0.1,0.8-0.2,0.8-1.4v-1.2h-3.2v1.2c0,1,0.1,1.3,0.8,1.4
		c0,0,0.1,0.2,0,0.2c-0.3,0-0.8-0.1-1.2-0.1c-0.5,0-1.2,0-1.6,0.1c-0.1,0,0-0.2,0-0.2c0.9-0.1,1-0.2,1-1.4v-2.7c0-1.1-0.1-1.3-1-1.4
		c0,0-0.1-0.3,0-0.2c0.4,0.1,1,0.1,1.5,0.1c0.4,0,0.9,0,1.2-0.1c0.1,0,0,0.2,0,0.2c-0.7,0.1-0.8,0.3-0.8,1.4v1.1h3.2v-1.1
		c0-1.1-0.1-1.3-0.8-1.4c0,0-0.1-0.3,0-0.2c0.4,0.1,0.9,0.1,1.4,0.1c0.4,0,1.1,0,1.3-0.1c0.1,0,0.1,0.2,0,0.2c-0.9,0.1-1,0.3-1,1.4
		v2.7c0,1.1,0,1.3,1,1.4c0.1,0,0.1,0.2,0,0.2c-0.3,0-1-0.1-1.3-0.1C72.7,93.9,72.2,93.9,71.9,93.9"/>
	<path fill="#467CBF" d="M76.8,90.7c0,1.9,1.2,3,2.4,3c1.3,0,2.2-0.8,2.2-2.4c0-1.9-1.3-3-2.4-3C77.7,88.3,76.8,89.1,76.8,90.7
		 M75.8,91.1c0-1.6,1.4-3.1,3.4-3.1c1.8,0,3.2,1.4,3.2,3c0,1.6-1.4,3.1-3.4,3.1C77.2,94.1,75.8,92.7,75.8,91.1"/>
</g>
</svg>
